<svg width="1440" height="400" viewBox="0 0 1440 400" fill="none" xmlns="http://www.w3.org/2000/svg">
<g clip-path="url(#clip0_315_29)">
<path d="M111.481 117.619C110.733 110.072 107.52 104.208 101.844 100.029C96.1679 95.8499 88.4645 93.7603 78.7338 93.7603C72.1219 93.7603 66.5393 94.6959 61.9858 96.5672C57.4323 98.3761 53.9393 100.902 51.5066 104.146C49.1363 107.39 47.9512 111.07 47.9512 115.187C47.8264 118.617 48.5437 121.611 50.1031 124.169C51.7249 126.726 53.9393 128.94 56.7462 130.812C59.5531 132.621 62.7967 134.211 66.4769 135.584C70.1571 136.893 74.0868 138.016 78.266 138.952L95.4818 143.069C103.84 144.94 111.512 147.435 118.499 150.554C125.485 153.673 131.535 157.509 136.65 162.062C141.765 166.616 145.726 171.98 148.533 178.155C151.402 184.331 152.868 191.41 152.93 199.394C152.868 211.121 149.874 221.288 143.948 229.896C138.085 238.442 129.602 245.085 118.499 249.825C107.458 254.504 94.1407 256.843 78.5467 256.843C63.0774 256.843 49.6041 254.473 38.1269 249.732C26.7121 244.991 17.7923 237.974 11.3675 228.68C5.00516 219.324 1.66803 207.753 1.35615 193.968H40.5596C40.9962 200.392 42.8363 205.757 46.0799 210.061C49.3858 214.302 53.7833 217.515 59.2724 219.698C64.8239 221.819 71.0927 222.879 78.0788 222.879C84.9402 222.879 90.8971 221.881 95.9496 219.885C101.064 217.889 105.025 215.113 107.832 211.558C110.639 208.002 112.043 203.917 112.043 199.301C112.043 194.997 110.764 191.379 108.207 188.447C105.711 185.516 102.031 183.021 97.166 180.962C92.363 178.904 86.4684 177.033 79.4823 175.348L58.6175 170.109C42.4621 166.179 29.7061 160.035 20.3497 151.677C10.9933 143.318 6.34624 132.059 6.40862 117.9C6.34624 106.298 9.43387 96.1618 15.6715 87.4915C21.9715 78.8212 30.6106 72.0534 41.5888 67.1881C52.567 62.3227 65.0422 59.89 79.0145 59.89C93.2363 59.89 105.649 62.3227 116.253 67.1881C126.919 72.0534 135.215 78.8212 141.141 87.4915C147.067 96.1618 150.123 106.204 150.31 117.619H111.481ZM255.874 110.415V140.355H169.327V110.415H255.874ZM188.976 75.9831H228.834V209.967C228.834 213.647 229.396 216.517 230.518 218.575C231.641 220.571 233.201 221.975 235.197 222.785C237.255 223.596 239.625 224.002 242.308 224.002C244.179 224.002 246.05 223.846 247.921 223.534C249.793 223.16 251.227 222.879 252.225 222.692L258.494 252.352C256.498 252.975 253.691 253.693 250.073 254.504C246.456 255.377 242.058 255.907 236.881 256.094C227.275 256.469 218.854 255.19 211.618 252.258C204.445 249.326 198.863 244.773 194.87 238.598C190.878 232.423 188.914 224.626 188.976 215.207V75.9831ZM345.79 256.936C331.006 256.936 318.282 253.942 307.615 247.954C297.011 241.904 288.84 233.358 283.102 222.318C277.363 211.215 274.494 198.084 274.494 182.927C274.494 168.144 277.363 155.17 283.102 144.004C288.84 132.839 296.918 124.138 307.335 117.9C317.814 111.662 330.102 108.543 344.199 108.543C353.68 108.543 362.506 110.072 370.678 113.128C378.911 116.122 386.085 120.644 392.197 126.695C398.373 132.745 403.176 140.355 406.606 149.525C410.037 158.632 411.752 169.298 411.752 181.524V192.471H290.4V167.77H374.233C374.233 162.031 372.986 156.947 370.491 152.519C367.996 148.09 364.534 144.628 360.105 142.133C355.739 139.576 350.655 138.297 344.854 138.297C338.803 138.297 333.439 139.7 328.761 142.507C324.145 145.252 320.527 148.963 317.907 153.641C315.288 158.257 313.947 163.403 313.884 169.08V192.564C313.884 199.675 315.194 205.819 317.814 210.996C320.496 216.174 324.27 220.166 329.135 222.973C334 225.779 339.77 227.183 346.445 227.183C350.873 227.183 354.928 226.559 358.608 225.312C362.288 224.064 365.438 222.193 368.058 219.698C370.678 217.203 372.674 214.146 374.046 210.529L410.91 212.961C409.039 221.819 405.203 229.553 399.402 236.165C393.663 242.715 386.241 247.829 377.134 251.51C368.089 255.127 357.641 256.936 345.79 256.936Z" fill="#F50C0C"/>
<path d="M648.634 339.292C633.851 339.292 621.126 336.298 610.46 330.31C599.856 324.259 591.685 315.714 585.946 304.673C580.208 293.57 577.338 280.44 577.338 265.283C577.338 250.5 580.208 237.525 585.946 226.36C591.685 215.195 599.763 206.493 610.179 200.256C620.659 194.018 632.947 190.899 647.044 190.899C656.525 190.899 665.351 192.427 673.522 195.484C681.756 198.478 688.929 203 695.042 209.051C701.217 215.101 706.02 222.711 709.451 231.88C712.882 240.987 714.597 251.654 714.597 263.879V274.826H593.244V250.125H677.078C677.078 244.387 675.83 239.303 673.335 234.874C670.84 230.446 667.378 226.984 662.95 224.489C658.583 221.931 653.5 220.653 647.699 220.653C641.648 220.653 636.284 222.056 631.606 224.863C626.99 227.607 623.372 231.319 620.752 235.997C618.132 240.613 616.791 245.759 616.729 251.435V274.92C616.729 282.031 618.039 288.175 620.659 293.352C623.341 298.529 627.115 302.521 631.98 305.328C636.845 308.135 642.615 309.539 649.289 309.539C653.718 309.539 657.772 308.915 661.453 307.667C665.133 306.42 668.283 304.549 670.903 302.053C673.522 299.558 675.518 296.502 676.891 292.884L713.755 295.317C711.884 304.174 708.048 311.909 702.247 318.521C696.508 325.07 689.085 330.185 679.978 333.865C670.934 337.483 660.486 339.292 648.634 339.292ZM805.542 339.292C790.821 339.292 778.158 336.173 767.554 329.936C757.013 323.636 748.904 314.903 743.228 303.738C737.614 292.572 734.807 279.723 734.807 265.189C734.807 250.468 737.645 237.556 743.321 226.454C749.06 215.288 757.2 206.587 767.742 200.349C778.283 194.049 790.821 190.899 805.354 190.899C817.892 190.899 828.87 193.176 838.289 197.729C847.708 202.283 855.162 208.676 860.651 216.91C866.14 225.144 869.165 234.812 869.727 245.915H832.114C831.053 238.742 828.247 232.972 823.693 228.606C819.202 224.177 813.307 221.962 806.009 221.962C799.834 221.962 794.439 223.647 789.823 227.015C785.269 230.321 781.714 235.155 779.156 241.517C776.599 247.88 775.32 255.583 775.32 264.628C775.32 273.797 776.568 281.594 779.063 288.019C781.62 294.444 785.207 299.34 789.823 302.708C794.439 306.077 799.834 307.761 806.009 307.761C810.563 307.761 814.649 306.825 818.266 304.954C821.947 303.083 824.972 300.369 827.342 296.814C829.775 293.196 831.365 288.861 832.114 283.808H869.727C869.103 294.787 866.109 304.455 860.744 312.813C855.443 321.109 848.113 327.597 838.757 332.275C829.4 336.953 818.329 339.292 805.542 339.292ZM971.688 192.77V222.711H885.141V192.77H971.688ZM904.79 158.339H944.648V292.323C944.648 296.003 945.21 298.872 946.332 300.931C947.455 302.927 949.015 304.33 951.011 305.141C953.069 305.952 955.439 306.357 958.122 306.357C959.993 306.357 961.864 306.201 963.735 305.89C965.607 305.515 967.041 305.235 968.039 305.048L974.308 334.707C972.312 335.331 969.505 336.048 965.887 336.859C962.27 337.733 957.872 338.263 952.695 338.45C943.089 338.824 934.668 337.546 927.432 334.614C920.259 331.682 914.676 327.129 910.684 320.953C906.692 314.778 904.727 306.981 904.79 297.562V158.339ZM997.652 336.485V192.77H1037.51V336.485H997.652ZM1017.68 174.245C1011.75 174.245 1006.67 172.28 1002.42 168.35C998.245 164.358 996.155 159.586 996.155 154.035C996.155 148.546 998.245 143.836 1002.42 139.907C1006.67 135.915 1011.75 133.918 1017.68 133.918C1023.6 133.918 1028.65 135.915 1032.83 139.907C1037.07 143.836 1039.19 148.546 1039.19 154.035C1039.19 159.586 1037.07 164.358 1032.83 168.35C1028.65 172.28 1023.6 174.245 1017.68 174.245ZM1134.37 339.292C1119.84 339.292 1107.27 336.204 1096.67 330.029C1086.13 323.792 1077.99 315.121 1072.25 304.018C1066.51 292.853 1063.64 279.91 1063.64 265.189C1063.64 250.344 1066.51 237.369 1072.25 226.266C1077.99 215.101 1086.13 206.431 1096.67 200.256C1107.27 194.018 1119.84 190.899 1134.37 190.899C1148.91 190.899 1161.44 194.018 1171.99 200.256C1182.59 206.431 1190.76 215.101 1196.5 226.266C1202.24 237.369 1205.11 250.344 1205.11 265.189C1205.11 279.91 1202.24 292.853 1196.5 304.018C1190.76 315.121 1182.59 323.792 1171.99 330.029C1161.44 336.204 1148.91 339.292 1134.37 339.292ZM1134.56 308.416C1141.17 308.416 1146.69 306.545 1151.12 302.802C1155.55 298.997 1158.89 293.82 1161.13 287.27C1163.44 280.721 1164.59 273.267 1164.59 264.908C1164.59 256.55 1163.44 249.096 1161.13 242.547C1158.89 235.997 1155.55 230.82 1151.12 227.015C1146.69 223.21 1141.17 221.307 1134.56 221.307C1127.89 221.307 1122.27 223.21 1117.72 227.015C1113.23 230.82 1109.83 235.997 1107.52 242.547C1105.27 249.096 1104.15 256.55 1104.15 264.908C1104.15 273.267 1105.27 280.721 1107.52 287.27C1109.83 293.82 1113.23 298.997 1117.72 302.802C1122.27 306.545 1127.89 308.416 1134.56 308.416ZM1270.88 253.4V336.485H1231.03V192.77H1269.01V218.126H1270.7C1273.88 209.768 1279.21 203.156 1286.7 198.291C1294.18 193.363 1303.26 190.899 1313.92 190.899C1323.9 190.899 1332.6 193.082 1340.03 197.449C1347.45 201.815 1353.22 208.053 1357.34 216.161C1361.45 224.208 1363.51 233.814 1363.51 244.979V336.485H1323.65V252.09C1323.72 243.295 1321.47 236.434 1316.92 231.506C1312.36 226.516 1306.09 224.021 1298.11 224.021C1292.75 224.021 1288.01 225.175 1283.89 227.483C1279.83 229.791 1276.65 233.159 1274.35 237.588C1272.1 241.954 1270.95 247.225 1270.88 253.4Z" fill="#F50C0C"/>
<path fill-rule="evenodd" clip-rule="evenodd" d="M403.966 336.485L479.967 69.2685H522.259L446.258 336.485H403.966Z" fill="#F50C0C"/>
<path fill-rule="evenodd" clip-rule="evenodd" d="M555.241 69.2687L479.24 336.485H521.532L597.534 69.2687H555.241Z" fill="#F50C0C"/>
<path d="M2.23047 286.287H386.323L372.107 336.485H2.23047V286.287Z" fill="black"/>
<path d="M1390.6 286.287H1440V336.485H1390.6V286.287Z" fill="black"/>
</g>
<defs>
<clipPath id="clip0_315_29">
<rect width="1440" height="400" fill="white"/>
</clipPath>
</defs>
</svg>
