<svg width="400" height="400" viewBox="0 0 400 400" fill="none" xmlns="http://www.w3.org/2000/svg">
<g clip-path="url(#clip0_315_44)">
<path d="M120.66 116.217C119.848 108.034 116.366 101.677 110.212 97.1466C104.058 92.6158 95.7065 90.3504 85.1571 90.3504C77.9889 90.3504 71.9365 91.3647 67 93.3935C62.0634 95.3546 58.2764 98.0934 55.6391 101.61C53.0693 105.126 51.7845 109.116 51.7845 113.579C51.6492 117.299 52.4269 120.545 54.1175 123.317C55.8758 126.09 58.2764 128.491 61.3195 130.519C64.3626 132.48 67.8791 134.205 71.8689 135.693C75.8588 137.113 80.1191 138.33 84.6499 139.344L103.314 143.807C112.376 145.836 120.694 148.541 128.268 151.922C135.842 155.304 142.401 159.462 147.946 164.399C153.492 169.336 157.786 175.151 160.829 181.846C163.94 188.541 165.529 196.216 165.596 204.872C165.529 217.586 162.283 228.608 155.858 237.941C149.502 247.205 140.305 254.407 128.268 259.547C116.298 264.618 101.86 267.154 84.9542 267.154C68.1834 267.154 53.5765 264.585 41.1336 259.445C28.7584 254.306 19.0881 246.698 12.1228 236.622C5.22509 226.478 1.60719 213.934 1.26907 198.989H43.771C44.2444 205.954 46.2393 211.77 49.7557 216.436C53.3398 221.034 58.1074 224.517 64.0583 226.884C70.0769 229.183 76.8731 230.333 84.447 230.333C91.8857 230.333 98.3439 229.251 103.821 227.087C109.367 224.923 113.661 221.914 116.704 218.059C119.747 214.204 121.269 209.775 121.269 204.771C121.269 200.105 119.882 196.183 117.11 193.004C114.405 189.826 110.415 187.121 105.14 184.889C99.933 182.658 93.5425 180.629 85.9686 178.803L63.3482 173.123C45.8335 168.862 32.0043 162.201 21.8607 153.14C11.717 144.078 6.67902 131.872 6.74664 116.521C6.67902 103.943 10.0264 92.9539 16.7889 83.5541C23.6189 74.1543 32.9849 66.8171 44.8868 61.5424C56.7887 56.2677 70.3136 53.6303 85.4614 53.6303C100.88 53.6303 114.337 56.2677 125.833 61.5424C137.397 66.8171 146.391 74.1543 152.815 83.5541C159.24 92.9539 162.553 103.841 162.756 116.217H120.66Z" fill="#F50C0C"/>
<path fill-rule="evenodd" clip-rule="evenodd" d="M169.137 347.153L251.533 62.0476H297.383L214.987 347.153H169.137Z" fill="#F50C0C"/>
<path fill-rule="evenodd" clip-rule="evenodd" d="M333.139 62.0476L250.743 347.153H296.594L378.99 62.0476H333.139Z" fill="#F50C0C"/>
<path d="M1.51367 294.362H156.532L140.312 347.921H1.51367V294.362Z" fill="black"/>
<rect x="346.44" y="293.594" width="53.5585" height="53.5585" fill="black"/>
</g>
<defs>
<clipPath id="clip0_315_44">
<rect width="400" height="400" fill="white"/>
</clipPath>
</defs>
</svg>
