<svg id="Layer_1" data-name="Layer 1" xmlns="http://www.w3.org/2000/svg" viewBox="0 0 374.89 87.78"><defs><style>.cls-1,.cls-2{fill:#2c8aff;}.cls-2{font-size:64.73px;font-family:Calibri;}.cls-3{letter-spacing:-0.01em;}</style></defs><path class="cls-1" d="M81,60.36,71.92,46.82A2.72,2.72,0,0,0,71,46l-11.78-6.9,0,7.43a5.84,5.84,0,0,1-1.38,3.78l1.37,2.37H23.57l2.73-4.73A5.83,5.83,0,0,1,22,40.31l.12-.35L11.82,46a2.82,2.82,0,0,0-.88.84L1.87,60.36A2.73,2.73,0,0,0,4.13,64.6a2.66,2.66,0,0,0,1.1-.24l10.9-4.8V82.47a2.72,2.72,0,0,0,2.72,2.72H64a2.72,2.72,0,0,0,2.72-2.72V59.55l10.91,4.81a2.72,2.72,0,0,0,3.36-4Zm-64.06-7.1L11.6,55.61l3.51-5.25,5.28-3.09ZM61.28,79.75H21.57V58.1H61.28Zm4.63-26.5L62.5,47.34l0-.07,5.29,3.09,3.51,5.25Z"/><path class="cls-1" d="M68.29,22.76a2.73,2.73,0,0,0-1.86-2.18L53.62,16.49,49.72,3.62a2.72,2.72,0,0,0-4.81-.8L37.07,13.74l-13.44-.28a2.65,2.65,0,0,0-2.47,1.47,2.71,2.71,0,0,0,.22,2.86l8,10.84-3.1,8.91-1.32,3.79a2.72,2.72,0,0,0,3.14,3.55,1.82,1.82,0,0,0,.29-.08l7.12-2.35,5.64-1.87,2.46,1.87,8.25,6.26a2.77,2.77,0,0,0,1.65.55,2.74,2.74,0,0,0,2.65-2.11,3.2,3.2,0,0,0,.07-.63l0-9.25,0-4.19,11-7.68A2.73,2.73,0,0,0,68.29,22.76ZM51.83,29.43a2.71,2.71,0,0,0-1.16,2.25l0,5.33,0,4L45.4,37l-2.14-1.63a2.75,2.75,0,0,0-1.65-.55,2.8,2.8,0,0,0-.85.14l-6.17,2-2.72.9.31-.9,2.76-7.95a2.7,2.7,0,0,0-.37-2.5L29,19l9.37.2a2.71,2.71,0,0,0,2.26-1.13l5.46-7.61,2.72,9a2.72,2.72,0,0,0,1.77,1.81l8.92,2.84Z"/><text class="cls-2" transform="translate(98.76 66.95)">S<tspan class="cls-3" x="29.74" y="0">t</tspan><tspan x="50.73" y="0">ellection</tspan></text></svg>