<svg width="1440" height="400" viewBox="0 0 1440 400" fill="none" xmlns="http://www.w3.org/2000/svg">
<rect width="1440" height="400" fill="white"/>
<path d="M132.426 115.193C131.697 107.85 128.572 102.146 123.05 98.0799C117.528 94.0141 110.033 91.9811 100.566 91.9811C94.1338 91.9811 88.7026 92.8914 84.2727 94.7119C79.8427 96.4718 76.4444 98.9295 74.0777 102.085C71.7717 105.241 70.6187 108.821 70.6187 112.826C70.4974 116.164 71.1952 119.077 72.7123 121.565C74.2901 124.053 76.4444 126.207 79.1752 128.028C81.906 129.787 85.0616 131.335 88.6419 132.67C92.2223 133.944 96.0454 135.037 100.111 135.947L116.86 139.952C124.992 141.772 132.456 144.2 139.252 147.234C146.049 150.268 151.935 154 156.912 158.43C161.888 162.86 165.741 168.079 168.472 174.087C171.263 180.094 172.689 186.982 172.75 194.75C172.689 206.158 169.777 216.05 164.012 224.424C158.307 232.738 150.054 239.201 139.252 243.813C128.511 248.364 115.555 250.64 100.384 250.64C85.3346 250.64 72.2269 248.334 61.061 243.722C49.9558 239.11 41.278 232.283 35.0275 223.241C28.8377 214.138 25.5911 202.881 25.2877 189.47H63.4277C63.8525 195.721 65.6426 200.939 68.7982 205.127C72.0145 209.253 76.2927 212.378 81.6329 214.502C87.0338 216.566 93.1325 217.597 99.9292 217.597C106.604 217.597 112.4 216.626 117.315 214.684C122.291 212.743 126.145 210.042 128.875 206.583C131.606 203.124 132.972 199.149 132.972 194.659C132.972 190.471 131.728 186.952 129.24 184.1C126.812 181.247 123.232 178.82 118.498 176.818C113.826 174.815 108.091 172.994 101.295 171.356L80.9957 166.258C65.2785 162.435 52.8686 156.458 43.766 148.326C34.6634 140.195 30.1424 129.241 30.2031 115.466C30.1424 104.179 33.1463 94.3175 39.2147 85.8824C45.3438 77.4473 53.7486 70.8631 64.429 66.1297C75.1094 61.3964 87.2462 59.0297 100.839 59.0297C114.675 59.0297 126.752 61.3964 137.068 66.1297C147.445 70.8631 155.516 77.4473 161.281 85.8824C167.046 94.3175 170.019 104.088 170.201 115.193H132.426ZM272.902 108.184V137.312H188.702V108.184H272.902ZM207.818 74.6862H246.595V205.036C246.595 208.616 247.141 211.407 248.234 213.41C249.326 215.352 250.843 216.717 252.785 217.506C254.787 218.295 257.093 218.69 259.703 218.69C261.523 218.69 263.344 218.538 265.164 218.234C266.985 217.87 268.381 217.597 269.352 217.415L275.45 246.271C273.508 246.877 270.778 247.575 267.258 248.364C263.738 249.214 259.46 249.729 254.423 249.912C245.078 250.276 236.886 249.032 229.846 246.179C222.868 243.327 217.436 238.897 213.553 232.89C209.669 226.882 207.757 219.296 207.818 210.133V74.6862ZM360.378 250.731C345.996 250.731 333.616 247.818 323.239 241.992C312.923 236.106 304.973 227.792 299.39 217.051C293.807 206.249 291.016 193.475 291.016 178.729C291.016 164.347 293.807 151.725 299.39 140.862C304.973 130 312.832 121.534 322.966 115.466C333.161 109.397 345.116 106.363 358.83 106.363C368.054 106.363 376.641 107.85 384.591 110.824C392.601 113.736 399.58 118.136 405.527 124.022C411.534 129.909 416.207 137.312 419.545 146.233C422.882 155.093 424.551 165.47 424.551 177.364V188.014H306.49V163.983H388.05C388.05 158.4 386.836 153.454 384.409 149.146C381.981 144.837 378.613 141.469 374.305 139.042C370.057 136.554 365.111 135.31 359.468 135.31C353.581 135.31 348.362 136.675 343.811 139.406C339.32 142.076 335.801 145.687 333.252 150.238C330.703 154.729 329.399 159.735 329.338 165.257V188.105C329.338 195.023 330.612 201 333.161 206.037C335.77 211.074 339.442 214.958 344.175 217.688C348.908 220.419 354.522 221.784 361.015 221.784C365.324 221.784 369.268 221.178 372.848 219.964C376.429 218.75 379.493 216.93 382.042 214.502C384.591 212.075 386.533 209.101 387.868 205.582L423.732 207.948C421.911 216.566 418.179 224.09 412.536 230.523C406.953 236.895 399.731 241.871 390.872 245.451C382.072 248.971 371.908 250.731 360.378 250.731Z" fill="#F50C0C"/>
<path d="M655.007 335.735C640.625 335.735 628.246 332.822 617.869 326.996C607.552 321.11 599.603 312.796 594.02 302.055C588.437 291.253 585.645 278.479 585.645 263.733C585.645 249.351 588.437 236.728 594.02 225.866C599.603 215.003 607.461 206.538 617.595 200.47C627.79 194.401 639.745 191.367 653.46 191.367C662.684 191.367 671.271 192.854 679.22 195.827C687.23 198.74 694.209 203.14 700.156 209.026C706.164 214.912 710.837 222.316 714.174 231.236C717.512 240.096 719.181 250.473 719.181 262.367V273.017H601.12V248.987H682.679C682.679 243.404 681.465 238.458 679.038 234.149C676.611 229.841 673.243 226.473 668.934 224.045C664.686 221.557 659.741 220.313 654.097 220.313C648.211 220.313 642.992 221.679 638.44 224.41C633.95 227.08 630.43 230.69 627.881 235.242C625.333 239.732 624.028 244.739 623.967 250.261V273.109C623.967 280.026 625.242 286.004 627.79 291.041C630.4 296.077 634.071 299.961 638.805 302.692C643.538 305.423 649.151 306.788 655.644 306.788C659.953 306.788 663.897 306.181 667.478 304.968C671.058 303.754 674.123 301.933 676.671 299.506C679.22 297.079 681.162 294.105 682.497 290.586L718.361 292.952C716.541 301.569 712.809 309.094 707.165 315.527C701.582 321.899 694.361 326.875 685.501 330.455C676.702 333.975 666.537 335.735 655.007 335.735ZM807.658 335.735C793.337 335.735 781.018 332.7 770.701 326.632C760.446 320.503 752.557 312.007 747.035 301.145C741.573 290.282 738.842 277.781 738.842 263.642C738.842 249.32 741.603 236.759 747.126 225.957C752.709 215.094 760.628 206.629 770.884 200.561C781.139 194.432 793.337 191.367 807.476 191.367C819.674 191.367 830.354 193.582 839.517 198.012C848.681 202.442 855.932 208.662 861.273 216.672C866.613 224.683 869.556 234.089 870.102 244.89H833.51C832.478 237.912 829.747 232.298 825.317 228.051C820.948 223.742 815.213 221.588 808.113 221.588C802.106 221.588 796.856 223.226 792.366 226.503C787.936 229.719 784.477 234.422 781.989 240.612C779.501 246.802 778.257 254.296 778.257 263.096C778.257 272.016 779.47 279.602 781.898 285.852C784.386 292.103 787.875 296.866 792.366 300.143C796.856 303.42 802.106 305.059 808.113 305.059C812.543 305.059 816.518 304.148 820.038 302.328C823.618 300.507 826.561 297.868 828.867 294.409C831.234 290.889 832.781 286.671 833.51 281.756H870.102C869.495 292.436 866.582 301.842 861.364 309.974C856.205 318.045 849.075 324.356 839.972 328.908C830.87 333.459 820.098 335.735 807.658 335.735ZM969.298 193.188V222.316H885.099V193.188H969.298ZM904.214 159.69H942.991V290.039C942.991 293.62 943.537 296.411 944.63 298.414C945.722 300.356 947.239 301.721 949.181 302.51C951.184 303.299 953.49 303.693 956.099 303.693C957.92 303.693 959.74 303.542 961.561 303.238C963.381 302.874 964.777 302.601 965.748 302.419L971.847 331.274C969.905 331.881 967.174 332.579 963.654 333.368C960.135 334.217 955.856 334.733 950.82 334.915C941.474 335.279 933.282 334.035 926.242 331.183C919.264 328.331 913.833 323.901 909.949 317.893C906.065 311.886 904.153 304.3 904.214 295.137V159.69ZM994.558 333.004V193.188H1033.33V333.004H994.558ZM1014.04 175.164C1008.27 175.164 1003.33 173.253 999.2 169.43C995.134 165.546 993.101 160.904 993.101 155.503C993.101 150.162 995.134 145.581 999.2 141.758C1003.33 137.874 1008.27 135.932 1014.04 135.932C1019.8 135.932 1024.72 137.874 1028.78 141.758C1032.91 145.581 1034.97 150.162 1034.97 155.503C1034.97 160.904 1032.91 165.546 1028.78 169.43C1024.72 173.253 1019.8 175.164 1014.04 175.164ZM1127.57 335.735C1113.43 335.735 1101.2 332.731 1090.89 326.723C1080.63 320.655 1072.71 312.219 1067.13 301.418C1061.55 290.555 1058.75 277.963 1058.75 263.642C1058.75 249.199 1061.55 236.577 1067.13 225.775C1072.71 214.912 1080.63 206.477 1090.89 200.47C1101.2 194.401 1113.43 191.367 1127.57 191.367C1141.71 191.367 1153.91 194.401 1164.16 200.47C1174.48 206.477 1182.43 214.912 1188.01 225.775C1193.59 236.577 1196.39 249.199 1196.39 263.642C1196.39 277.963 1193.59 290.555 1188.01 301.418C1182.43 312.219 1174.48 320.655 1164.16 326.723C1153.91 332.731 1141.71 335.735 1127.57 335.735ZM1127.75 305.696C1134.18 305.696 1139.55 303.875 1143.86 300.234C1148.17 296.533 1151.42 291.496 1153.6 285.124C1155.85 278.752 1156.97 271.5 1156.97 263.369C1156.97 255.237 1155.85 247.985 1153.6 241.613C1151.42 235.242 1148.17 230.205 1143.86 226.503C1139.55 222.801 1134.18 220.951 1127.75 220.951C1121.26 220.951 1115.8 222.801 1111.37 226.503C1107 230.205 1103.69 235.242 1101.45 241.613C1099.26 247.985 1098.17 255.237 1098.17 263.369C1098.17 271.5 1099.26 278.752 1101.45 285.124C1103.69 291.496 1107 296.533 1111.37 300.234C1115.8 303.875 1121.26 305.696 1127.75 305.696ZM1260.38 252.172V333.004H1221.6V193.188H1258.56V217.856H1260.19C1263.29 209.724 1268.48 203.291 1275.76 198.558C1283.04 193.764 1291.87 191.367 1302.25 191.367C1311.96 191.367 1320.42 193.491 1327.65 197.739C1334.87 201.987 1340.48 208.055 1344.48 215.944C1348.49 223.772 1350.49 233.118 1350.49 243.98V333.004H1311.72V250.898C1311.78 242.342 1309.59 235.666 1305.16 230.872C1300.73 226.018 1294.63 223.59 1286.87 223.59C1281.65 223.59 1277.03 224.713 1273.03 226.958C1269.08 229.204 1265.99 232.48 1263.74 236.789C1261.56 241.037 1260.44 246.165 1260.38 252.172Z" fill="#F50C0C"/>
<path fill-rule="evenodd" clip-rule="evenodd" d="M416.976 328.204L490.915 68.2365H532.06L458.121 328.204H416.976Z" fill="#F50C0C"/>
<path fill-rule="evenodd" clip-rule="evenodd" d="M564.148 68.2366L490.208 328.204H531.353L605.293 68.2366H564.148Z" fill="#F50C0C"/>
<path d="M26.1387 279.368H399.812L385.982 328.204H26.1387V279.368Z" fill="black"/>
<path d="M1376.84 288.164H1424.91V337.001H1376.84V288.164Z" fill="black"/>
</svg>
