<svg width="400" height="400" viewBox="0 0 400 400" fill="none" xmlns="http://www.w3.org/2000/svg">
<g clip-path="url(#clip0_315_44)">
<rect width="400" height="400" fill="white"/>
<path d="M125.912 119.622C125.152 111.959 121.891 106.007 116.128 101.764C110.366 97.5215 102.545 95.4001 92.6667 95.4001C85.9543 95.4001 80.2868 96.35 75.6642 98.2497C71.0415 100.086 67.4953 102.651 65.0257 105.944C62.6194 109.236 61.4162 112.973 61.4162 117.152C61.2896 120.635 62.0178 123.674 63.6009 126.271C65.2473 128.867 67.4953 131.115 70.3449 133.015C73.1945 134.851 76.4874 136.466 80.2235 137.859C83.9596 139.189 87.9491 140.329 92.1918 141.279L109.669 145.458C118.155 147.358 125.944 149.891 133.036 153.057C140.128 156.223 146.271 160.117 151.463 164.74C156.656 169.363 160.677 174.809 163.526 181.078C166.439 187.347 167.928 194.534 167.991 202.64C167.928 214.545 164.888 224.866 158.872 233.605C152.92 242.281 144.308 249.025 133.036 253.837C121.828 258.587 108.308 260.961 92.4767 260.961C76.7723 260.961 63.0943 258.555 51.4427 253.742C39.8543 248.93 30.799 241.806 24.2766 232.37C17.8175 222.872 14.4297 211.125 14.113 197.13H53.9123C54.3556 203.653 56.2236 209.099 59.5165 213.468C62.8727 217.774 67.337 221.035 72.9096 223.252C78.5454 225.405 84.9095 226.481 92.0018 226.481C98.9675 226.481 105.015 225.468 110.144 223.442C115.337 221.415 119.358 218.597 122.207 214.988C125.057 211.378 126.482 207.231 126.482 202.545C126.482 198.175 125.184 194.503 122.587 191.526C120.054 188.55 116.318 186.017 111.379 183.927C106.503 181.838 100.519 179.938 93.4266 178.228L72.2447 172.909C55.8437 168.92 42.8939 162.682 33.3953 154.197C23.8966 145.711 19.179 134.281 19.2423 119.907C19.179 108.128 22.3135 97.8381 28.6459 89.0361C35.0417 80.234 43.8121 73.3633 54.9571 68.424C66.1022 63.4847 78.767 61.0151 92.9517 61.0151C107.39 61.0151 119.991 63.4847 130.756 68.424C141.585 73.3633 150.007 80.234 156.023 89.0361C162.038 97.8381 165.141 108.033 165.331 119.622H125.912Z" fill="#F50C0C"/>
<path fill-rule="evenodd" clip-rule="evenodd" d="M171.352 336.258L248.508 69.2831H291.443L214.287 336.258H171.352Z" fill="#F50C0C"/>
<path fill-rule="evenodd" clip-rule="evenodd" d="M324.926 69.2831L247.77 336.258H290.705L367.861 69.2831H324.926Z" fill="#F50C0C"/>
<path d="M14.3877 286.825H159.548L144.36 336.978H14.3877V286.825Z" fill="black"/>
<rect x="337.381" y="286.106" width="50.1528" height="50.1528" fill="black"/>
</g>
<defs>
<clipPath id="clip0_315_44">
<rect width="400" height="400" fill="white"/>
</clipPath>
</defs>
</svg>
